<svg width="80" height="80" viewBox="0 0 80 80" fill="none" xmlns="http://www.w3.org/2000/svg">
<path d="M65.9857 34.6665C58.2666 34.6745 51.9921 41.0629 52 48.909C52.0032 53.1953 54.1175 58.081 58.2841 63.4328C61.2575 67.2529 64.2039 69.9079 64.328 70.0188C65.2948 70.8859 66.75 70.88 67.7102 70.0156C67.8343 69.9047 70.7759 67.2433 73.743 63.4183C76.926 59.3132 80 54.0766 80 48.8817C79.9935 41.0507 73.7662 34.6665 65.9857 34.6665ZM62.1818 48.8126C62.1785 46.6823 63.885 44.9556 65.9952 44.9522C69.3921 44.9522 71.0923 49.1181 68.7014 51.5335C66.322 53.9424 62.1818 52.2649 62.1818 48.8126Z" fill="#F29F05"/>
<path d="M12.3089 34.0415C13.2734 34.8744 14.7251 34.8758 15.6911 34.0415C15.8152 33.9347 18.76 31.3749 21.7302 27.6947C25.8905 22.5364 28 17.8301 28 13.7011C28 6.14715 21.7191 0 14 0C6.28091 0 0 6.14715 0 13.7011C0 17.8301 2.10955 22.5364 6.26977 27.6947C9.24 31.3749 12.1848 33.9347 12.3089 34.0415ZM14 9.90477C16.1048 9.90477 17.8182 11.5716 17.8182 13.6191C17.8182 15.6666 16.1048 17.3333 14 17.3333C11.8952 17.3333 10.1818 15.6666 10.1818 13.6191C10.1818 11.5716 11.8952 9.90477 14 9.90477Z" fill="#F29F05"/>
<path d="M70.6667 76.2182C70.6667 79.6694 66.3794 81.3202 64.0638 78.7403H11.3544C5.09369 78.7403 0 73.655 0 67.4046C0 61.1543 5.09369 56.0689 11.3544 56.0689H36.6651C40.0998 56.0689 42.8942 53.2791 42.8942 49.85C42.8942 46.421 40.0998 43.6311 36.6651 43.6311H16.6988C15.9371 44.4703 14.9232 44.8907 13.8775 44.8907C10.5223 44.8907 8.8277 40.8101 11.1982 38.4435C12.7566 36.8842 15.2883 36.9985 16.6972 38.593H36.6651C42.8832 38.593 47.9406 43.6422 47.9406 49.85C47.9406 56.0579 42.8832 61.107 36.6651 61.107H11.3544C7.87551 61.107 5.04638 63.9315 5.04638 67.4046C5.04638 70.8778 7.87551 73.7023 11.3544 73.7023C68.1287 73.7023 63.9804 73.7761 64.2041 73.5527C66.5685 71.1868 70.6641 72.8485 70.6667 76.2182Z" fill="#F29F05"/>
</svg>
