<svg width="27" height="28" viewBox="0 0 27 28" fill="none" xmlns="http://www.w3.org/2000/svg">
<path fill-rule="evenodd" clip-rule="evenodd" d="M1.77778 3.33329C1.77778 3.09754 1.87143 2.87145 2.03813 2.70475C2.20483 2.53805 2.43092 2.4444 2.66667 2.4444H7.11111V0.666626H2.66667C1.95942 0.666626 1.28115 0.947577 0.781049 1.44767C0.280952 1.94777 0 2.62605 0 3.33329V24.6666C0 25.3739 0.280952 26.0521 0.781049 26.5522C1.28115 27.0523 1.95942 27.3333 2.66667 27.3333H20.6711C20.292 26.7903 20.0024 26.1901 19.8133 25.5555H2.66667C2.43092 25.5555 2.20483 25.4619 2.03813 25.2952C1.87143 25.1285 1.77778 24.9024 1.77778 24.6666V3.33329ZM24.8889 17.6177C25.4785 17.5334 26.0771 17.5334 26.6667 17.6177V3.33329C26.6667 2.62605 26.3857 1.94777 25.8856 1.44767C25.3855 0.947577 24.7072 0.666626 24 0.666626H21.3333V2.4444H24C24.2357 2.4444 24.4618 2.53805 24.6285 2.70475C24.7952 2.87145 24.8889 3.09754 24.8889 3.33329V17.6177ZM8.88889 2.4444H18.2782V0.666626H8.88889V2.4444Z" fill="#5679A7"/>
</svg>
