<svg width="32" height="32" viewBox="0 0 32 32" fill="none" xmlns="http://www.w3.org/2000/svg">
<path fill-rule="evenodd" clip-rule="evenodd" d="M25.7778 30.2223C26.9565 30.2223 28.087 29.7541 28.9205 28.9206C29.754 28.0871 30.2222 26.9566 30.2222 25.7779C30.2222 24.5991 29.754 23.4687 28.9205 22.6352C28.087 21.8017 26.9565 21.3334 25.7778 21.3334C24.599 21.3334 23.4686 21.8017 22.6351 22.6352C21.8016 23.4687 21.3333 24.5991 21.3333 25.7779C21.3333 26.9566 21.8016 28.0871 22.6351 28.9206C23.4686 29.7541 24.599 30.2223 25.7778 30.2223ZM25.7778 32.0001C27.428 32.0001 29.0106 31.3446 30.1775 30.1777C31.3444 29.0108 32 27.4281 32 25.7779C32 24.1277 31.3444 22.545 30.1775 21.3781C29.0106 20.2112 27.428 19.5557 25.7778 19.5557C24.1275 19.5557 22.5449 20.2112 21.378 21.3781C20.2111 22.545 19.5555 24.1277 19.5555 25.7779C19.5555 27.4281 20.2111 29.0108 21.378 30.1777C22.5449 31.3446 24.1275 32.0001 25.7778 32.0001Z" fill="#5679A7"/>
<path fill-rule="evenodd" clip-rule="evenodd" d="M25.7778 22.6665C26.0136 22.6665 26.2396 22.7602 26.4063 22.9269C26.573 23.0936 26.6667 23.3196 26.6667 23.5554V25.4096L27.2951 26.0381C27.4571 26.2057 27.5467 26.4302 27.5446 26.6633C27.5426 26.8964 27.4491 27.1193 27.2843 27.2841C27.1195 27.4489 26.8966 27.5424 26.6635 27.5444C26.4304 27.5465 26.2059 27.4569 26.0382 27.295L24.8889 26.1456V23.5554C24.8889 23.3196 24.9826 23.0936 25.1493 22.9269C25.316 22.7602 25.5421 22.6665 25.7778 22.6665Z" fill="#5679A7"/>
<path fill-rule="evenodd" clip-rule="evenodd" d="M7.1111 15.1113H5.33332V16.8891H7.1111V15.1113ZM5.33332 13.3335C4.86182 13.3335 4.40964 13.5208 4.07624 13.8542C3.74284 14.1876 3.55554 14.6398 3.55554 15.1113V16.8891C3.55554 17.3605 3.74284 17.8127 4.07624 18.1461C4.40964 18.4795 4.86182 18.6668 5.33332 18.6668H7.1111C7.58259 18.6668 8.03478 18.4795 8.36818 18.1461C8.70157 17.8127 8.88888 17.3605 8.88888 16.8891V15.1113C8.88888 14.6398 8.70157 14.1876 8.36818 13.8542C8.03478 13.5208 7.58259 13.3335 7.1111 13.3335H5.33332Z" fill="#5679A7"/>
<path fill-rule="evenodd" clip-rule="evenodd" d="M14.2222 15.1113H12.4444V16.8891H14.2222V15.1113ZM12.4444 13.3335C11.9729 13.3335 11.5207 13.5208 11.1873 13.8542C10.8539 14.1876 10.6666 14.6398 10.6666 15.1113V16.8891C10.6666 17.3605 10.8539 17.8127 11.1873 18.1461C11.5207 18.4795 11.9729 18.6668 12.4444 18.6668H14.2222C14.6937 18.6668 15.1459 18.4795 15.4793 18.1461C15.8127 17.8127 16 17.3605 16 16.8891V15.1113C16 14.6398 15.8127 14.1876 15.4793 13.8542C15.1459 13.5208 14.6937 13.3335 14.2222 13.3335H12.4444Z" fill="#5679A7"/>
<path fill-rule="evenodd" clip-rule="evenodd" d="M21.3334 15.1113H19.5556V16.8891H21.3334V15.1113ZM19.5556 13.3335C19.0841 13.3335 18.6319 13.5208 18.2985 13.8542C17.9651 14.1876 17.7778 14.6398 17.7778 15.1113V16.8891C17.7778 17.3605 17.9651 17.8127 18.2985 18.1461C18.6319 18.4795 19.0841 18.6668 19.5556 18.6668H21.3334C21.8049 18.6668 22.2571 18.4795 22.5905 18.1461C22.9239 17.8127 23.1112 17.3605 23.1112 16.8891V15.1113C23.1112 14.6398 22.9239 14.1876 22.5905 13.8542C22.2571 13.5208 21.8049 13.3335 21.3334 13.3335H19.5556Z" fill="#5679A7"/>
<path fill-rule="evenodd" clip-rule="evenodd" d="M7.1111 22.2221H5.33332V23.9999H7.1111V22.2221ZM5.33332 20.4443C4.86182 20.4443 4.40964 20.6316 4.07624 20.965C3.74284 21.2984 3.55554 21.7506 3.55554 22.2221V23.9999C3.55554 24.4714 3.74284 24.9236 4.07624 25.257C4.40964 25.5904 4.86182 25.7777 5.33332 25.7777H7.1111C7.58259 25.7777 8.03478 25.5904 8.36818 25.257C8.70157 24.9236 8.88888 24.4714 8.88888 23.9999V22.2221C8.88888 21.7506 8.70157 21.2984 8.36818 20.965C8.03478 20.6316 7.58259 20.4443 7.1111 20.4443H5.33332Z" fill="#5679A7"/>
<path fill-rule="evenodd" clip-rule="evenodd" d="M14.2222 22.2221H12.4444V23.9999H14.2222V22.2221ZM12.4444 20.4443C11.9729 20.4443 11.5207 20.6316 11.1873 20.965C10.8539 21.2984 10.6666 21.7506 10.6666 22.2221V23.9999C10.6666 24.4714 10.8539 24.9236 11.1873 25.257C11.5207 25.5904 11.9729 25.7777 12.4444 25.7777H14.2222C14.6937 25.7777 15.1459 25.5904 15.4793 25.257C15.8127 24.9236 16 24.4714 16 23.9999V22.2221C16 21.7506 15.8127 21.2984 15.4793 20.965C15.1459 20.6316 14.6937 20.4443 14.2222 20.4443H12.4444Z" fill="#5679A7"/>
<path fill-rule="evenodd" clip-rule="evenodd" d="M1.77778 5.33317C1.77778 5.09742 1.87143 4.87133 2.03813 4.70463C2.20483 4.53793 2.43092 4.44428 2.66667 4.44428H7.11111V2.6665H2.66667C1.95942 2.6665 1.28115 2.94746 0.781049 3.44755C0.280952 3.94765 0 4.62593 0 5.33317V26.6665C0 27.3737 0.280952 28.052 0.781049 28.5521C1.28115 29.0522 1.95942 29.3332 2.66667 29.3332H20.6711C20.292 28.7902 20.0024 28.19 19.8133 27.5554H2.66667C2.43092 27.5554 2.20483 27.4617 2.03813 27.295C1.87143 27.1283 1.77778 26.9023 1.77778 26.6665V5.33317ZM24.8889 19.6176C25.4785 19.5333 26.0771 19.5333 26.6667 19.6176V5.33317C26.6667 4.62593 26.3857 3.94765 25.8856 3.44755C25.3855 2.94746 24.7072 2.6665 24 2.6665H21.3333V4.44428H24C24.2357 4.44428 24.4618 4.53793 24.6285 4.70463C24.7952 4.87133 24.8889 5.09742 24.8889 5.33317V19.6176ZM8.88889 4.44428H18.2782V2.6665H8.88889V4.44428Z" fill="#5679A7"/>
<path fill-rule="evenodd" clip-rule="evenodd" d="M19.5556 2.6665H8.88892V5.33317C8.88892 5.56892 8.79526 5.79501 8.62857 5.96171C8.46187 6.12841 8.23577 6.22206 8.00003 6.22206C7.76428 6.22206 7.53819 6.12841 7.37149 5.96171C7.20479 5.79501 7.11114 5.56892 7.11114 5.33317V2.6665H2.66669C2.1952 2.6665 1.74301 2.85381 1.40961 3.1872C1.07622 3.5206 0.888916 3.97279 0.888916 4.44428V8.88873C0.888916 9.36022 1.07622 9.81241 1.40961 10.1458C1.74301 10.4792 2.1952 10.6665 2.66669 10.6665H24C24.4715 10.6665 24.9237 10.4792 25.2571 10.1458C25.5905 9.81241 25.7778 9.36022 25.7778 8.88873V4.44428C25.7778 3.97279 25.5905 3.5206 25.2571 3.1872C24.9237 2.85381 24.4715 2.6665 24 2.6665H21.3334V5.33317C21.3334 5.56892 21.2397 5.79501 21.073 5.96171C20.9063 6.12841 20.6802 6.22206 20.4445 6.22206C20.2087 6.22206 19.9826 6.12841 19.8159 5.96171C19.6492 5.79501 19.5556 5.56892 19.5556 5.33317V2.6665Z" fill="#5679A7"/>
<path fill-rule="evenodd" clip-rule="evenodd" d="M26.6667 10.6664H1.77783V8.88867H26.6667V10.6664Z" fill="#5679A7"/>
<path d="M5.33337 0.888889C5.33337 0.653141 5.42702 0.427049 5.59372 0.26035C5.76042 0.0936507 5.98651 0 6.22226 0C6.45801 0 6.6841 0.0936507 6.8508 0.26035C7.0175 0.427049 7.11115 0.653141 7.11115 0.888889V4.44444C7.11115 4.68019 7.0175 4.90628 6.8508 5.07298C6.6841 5.23968 6.45801 5.33333 6.22226 5.33333C5.98651 5.33333 5.76042 5.23968 5.59372 5.07298C5.42702 4.90628 5.33337 4.68019 5.33337 4.44444V0.888889Z" fill="#5679A7"/>
<path d="M17.7778 0.888889C17.7778 0.653141 17.8715 0.427049 18.0382 0.26035C18.2049 0.0936507 18.431 0 18.6667 0C18.9025 0 19.1286 0.0936507 19.2953 0.26035C19.462 0.427049 19.5556 0.653141 19.5556 0.888889V4.44444C19.5556 4.68019 19.462 4.90628 19.2953 5.07298C19.1286 5.23968 18.9025 5.33333 18.6667 5.33333C18.431 5.33333 18.2049 5.23968 18.0382 5.07298C17.8715 4.90628 17.7778 4.68019 17.7778 4.44444V0.888889Z" fill="#5679A7"/>
</svg>
