<svg width="24" height="28" viewBox="0 0 24 28" fill="none" xmlns="http://www.w3.org/2000/svg">
<path d="M10.3104 1.26665C10.7896 0.878285 11.3856 0.666626 12 0.666626C12.6144 0.666626 13.2104 0.878285 13.6896 1.26665L22.9896 8.80396C23.3051 9.05965 23.5597 9.38368 23.7346 9.75211C23.9095 10.1205 24.0002 10.524 24 10.9325V24.6059C24 25.3292 23.7155 26.023 23.2092 26.5345C22.7028 27.0459 22.0161 27.3333 21.3 27.3333H17.7C16.9839 27.3333 16.2972 27.0459 15.7908 26.5345C15.2845 26.023 15 25.3292 15 24.6059V17.3328C15 17.0917 14.9052 16.8605 14.7364 16.69C14.5676 16.5195 14.3387 16.4237 14.1 16.4237H9.9C9.66131 16.4237 9.43239 16.5195 9.26361 16.69C9.09482 16.8605 9 17.0917 9 17.3328V24.6059C9 25.3292 8.71554 26.023 8.20919 26.5345C7.70284 27.0459 7.01608 27.3333 6.3 27.3333H2.7C1.98392 27.3333 1.29716 27.0459 0.790812 26.5345C0.284464 26.023 0 25.3292 0 24.6059V10.9325C0 10.1058 0.372 9.32277 1.0104 8.80518L10.3104 1.26786V1.26665ZM12.5628 2.6849C12.4031 2.55564 12.2046 2.48521 12 2.48521C11.7954 2.48521 11.5969 2.55564 11.4372 2.6849L2.1372 10.2222C2.03201 10.3074 1.9471 10.4153 1.88874 10.538C1.83037 10.6608 1.80005 10.7952 1.8 10.9313V24.6047C1.8 25.1077 2.2032 25.5138 2.7 25.5138H6.3C6.5387 25.5138 6.76761 25.418 6.9364 25.2475C7.10518 25.077 7.2 24.8458 7.2 24.6047V17.3316C7.2 16.6083 7.48446 15.9145 7.99081 15.4031C8.49716 14.8916 9.18392 14.6042 9.9 14.6042H14.1C14.4547 14.6042 14.8059 14.6748 15.1335 14.812C15.4612 14.9491 15.7589 15.1501 16.0096 15.4035C16.2603 15.6569 16.4592 15.9577 16.5948 16.2887C16.7304 16.6198 16.8002 16.9746 16.8 17.3328V24.6059C16.8 25.1089 17.2032 25.515 17.7 25.515H21.3C21.5387 25.515 21.7676 25.4192 21.9364 25.2488C22.1052 25.0783 22.2 24.847 22.2 24.6059V10.9325C22.2001 10.7965 22.17 10.6621 22.1118 10.5394C22.0536 10.4167 21.969 10.3087 21.864 10.2234L12.564 2.68611L12.5628 2.6849Z" fill="white"/>
</svg>
