<svg width="32" height="32" viewBox="0 0 32 32" fill="none" xmlns="http://www.w3.org/2000/svg">
<path fill-rule="evenodd" clip-rule="evenodd" d="M1.33337 5.33333C1.33337 4.59695 1.93033 4 2.66671 4H29.3334C30.0698 4 30.6667 4.59695 30.6667 5.33333C30.6667 6.06971 30.0698 6.66667 29.3334 6.66667H2.66671C1.93033 6.66667 1.33337 6.06971 1.33337 5.33333ZM1.33337 15.3333C1.33337 14.597 1.93033 14 2.66671 14H29.3334C30.0698 14 30.6667 14.597 30.6667 15.3333C30.6667 16.0697 30.0698 16.6667 29.3334 16.6667H2.66671C1.93033 16.6667 1.33337 16.0697 1.33337 15.3333ZM1.33337 25.3333C1.33337 24.597 1.93033 24 2.66671 24H29.3334C30.0698 24 30.6667 24.597 30.6667 25.3333C30.6667 26.0697 30.0698 26.6667 29.3334 26.6667H2.66671C1.93033 26.6667 1.33337 26.0697 1.33337 25.3333Z" fill="#5679A7"/>
</svg>
