<svg width="24" height="27" viewBox="0 0 24 27" fill="none" xmlns="http://www.w3.org/2000/svg">
<path d="M22.6667 4C21.8667 4 21.3333 4.66667 21.3333 5.46667V18.6667C21.3333 19.4667 21.8667 20 22.6667 20.1333C23.4667 20.1333 24 19.4667 24 18.6667V5.46667C24 4.66667 23.4667 4 22.6667 4ZM17.8667 0H2.13333C0.933333 0 0 0.933333 0 2.13333V20.5333C0 21.7333 0.933333 22.6667 2.13333 22.6667H4V25.3333C4 26.1333 4.53333 26.6667 5.33333 26.6667H13.3333C14.1333 26.6667 14.6667 26.1333 14.6667 25.3333V22.6667H17.8667C19.0667 22.6667 20 21.7333 20 20.5333V2.13333C20 0.933333 19.0667 0 17.8667 0ZM2.66667 8H6.66667V10.6667H2.66667V8ZM12 12V14.6667H8V12H12ZM8 10.6667V8H12V10.6667H8ZM12 16V18.6667H8V16H12ZM2.66667 12H6.66667V14.6667H2.66667V12ZM2.66667 18.6667V16H6.66667V18.6667H2.66667ZM6.66667 25.3333H5.33333V22.6667H6.66667V25.3333ZM13.3333 25.3333H9.33333V22.6667H13.3333V25.3333ZM17.3333 18.6667H13.3333V16H17.3333V18.6667ZM17.3333 14.6667H13.3333V12H17.3333V14.6667ZM17.3333 10.6667H13.3333V8H17.3333V10.6667ZM17.3333 5.33333H2.66667V2.66667H17.3333V5.33333Z" fill="#5679A7"/>
</svg>
